<svg version="1" xmlns="http://www.w3.org/2000/svg" width="2560" height="2560" viewBox="0 0 1920.000000 1920.000000"><path d="M957.8 36.7c2.3.2 5.9.2 8 0 2-.2.1-.4-4.3-.4-4.4 0-6.1.2-3.7.4zM1228.4 37.1c-1.6 2.7 4.9 6.2 30.9 16.9 65.7 26.9 132 60.1 182.2 91.3 69.2 43 127.8 89.8 184.5 147.3 70.4 71.5 125.8 148.5 171 237.9 46.6 92.2 75.4 182.3 92 288 4.6 29.3 7.6 41.8 12.3 51.4 5 10.3 7.2 9.2 10.1-5.1 3.4-16.4 5.9-49.8 3.8-49.8-.6 0-1.3 1.5-1.6 3.2-.2 1.8-1.1 8.6-2 15.1-1.5 11.4-4 19.3-6.1 19.1-1.8-.1-6.2-10.5-8.4-19.8-1.2-5-3.9-19.4-6.1-32-21.7-124.2-61.2-229.1-129.2-343.6-37-62.3-89.1-127.8-145.9-183.5-55.6-54.5-109.9-97-186.1-145.6-30.2-19.3-34.8-22.5-34.8-24 0-1.6 2.8-1 11.5 2.5 8.4 3.3 8.5 3.3 8.5 1.2 0-1.2-1.3-3.5-2.9-5-2.9-2.8-15.5-9.6-17.7-9.6-.6 0-4.6-1.8-8.9-4-4.3-2.2-8.3-4-9-4-.7 0-4.7-1.8-9-4s-8.6-4-9.6-4-2.1-.5-2.4-1c-.3-.6-1.4-1-2.5-1-1 0-4.4-1.4-7.5-3-3.1-1.7-6.5-3-7.5-3-1.1 0-2.2-.5-2.5-1-.3-.6-1.5-1-2.5-1-1.1 0-3.5-.9-5.5-2s-4.7-2-6-2c-1.3 0-4-.9-6-2s-4.4-2-5.5-2c-1 0-2.2-.5-2.5-1-.3-.6-1.7-1-3-1s-2.7-.5-3-1c-.3-.6-1.7-1-3-1s-2.7-.5-3-1c-.3-.6-1.7-1-3-1s-2.7-.5-3-1c-.3-.6-2.1-1-4-1s-3.7-.5-4-1c-.3-.6-1.9-1-3.6-1-1.6 0-2.9-.5-2.9-1 0-.6-.7-1-1.6-1-.9 0-2.4-.8-3.3-1.8-1.7-2-9.1-4.2-14-4.2-1.7 0-3.1-.5-3.1-1 0-.6-1.1-1-2.4-1-1.2 0-3.6-.4-5.2-.9-4.4-1.4-16.3-2.1-17-1zM944.3 37.7c.9.2 2.3.2 3 0 .6-.3-.1-.5-1.8-.5-1.6 0-2.2.2-1.2.5zM976.8 37.7c.6.2 1.8.2 2.5 0 .6-.3.1-.5-1.3-.5-1.4 0-1.9.2-1.2.5zM937.8 38.7c.7.3 1.6.2 1.9-.1.4-.3-.2-.6-1.3-.5-1.1 0-1.4.3-.6.6zM983.8 38.7c.7.3 1.6.2 1.9-.1.4-.3-.2-.6-1.3-.5-1.1 0-1.4.3-.6.6zM909 47c-.8.5-1 1-.5 1 .6 0 1.7-.5 2.5-1s1.1-1 .5-1c-.5 0-1.7.5-2.5 1zM887 57.6c-29.3 15.4-49.9 40-58.5 69.9-2.6 9.1-4.6 24.8-3.9 32 .1 2.2.5 6.7.8 10 1.3 14.5 8.7 33.5 18.6 47.9 6.7 9.7 21.2 23.7 32.1 30.9 8 5.3 22.4 12.7 24.8 12.7.6 0 1.5.9 2.1 2 .7 1.3.9 36.2.8 109.5l-.3 107.5H921l-.2-117-.3-117.1-10.1-4.3c-25.9-11-46.3-30-57.9-54-7.7-15.9-9.9-25.6-9.9-43.1 0-15.5 1.9-25.4 7.6-38.9 7.3-17.3 23.9-36.8 40.5-47.7 8.6-5.6 9-5.9 7.7-5.9-.5 0-5.6 2.5-11.4 5.6zM1065 199.4c-5.7 8.9-21.3 24.7-30.7 30.9-8 5.3-22.9 12.6-31 15.2l-5.3 1.7v8.2c0 4.4.4 7.6.8 7.1.4-.6 3.5-2.3 7-3.9 27.1-12 49.3-33.1 60.8-58.1 2-4.2 3.4-7.8 3.2-7.9-.2-.2-2.3 2.9-4.8 6.8zM398.8 482.7c-.3 2.5-.7 2.7-5.7 3.1-6.6.4-8.9 1.5-10.1 4.8-.6 1.5-1 21.4-1 47.3v44.9l2.3.6c1.2.3 5.2.6 9 .6h6.7v-52c0-28.6-.2-52-.4-52-.3 0-.6 1.2-.8 2.7z"/><path d="M1809 511.6c0 .3 3.9 9.2 8.6 19.8 38.8 85.9 61.1 153.3 77.9 235.1 2.1 9.9 4.4 19.6 5.2 21.5 1.4 3.3 1.5 3.4 2.9 1.6 2-2.7 1.9-22.9-.2-33.7-8.3-44.2-32.2-117.8-55-169-15.5-35.1-39.4-80.6-39.4-75.3zM360.8 583.7c.7.3 1.6.2 1.9-.1.4-.3-.2-.6-1.3-.5-1.1 0-1.4.3-.6.6zM338.5 592.9c-11.4 5.4-18.6 15.5-20.5 28.6-1.3 9.1-1.3 214.3 0 224.3 1.7 12.9 9.4 23.9 20.3 29 6.5 3.1 14.7 4.2 29.9 4.2H382v381.2l2.9 2.9 2.9 2.9h196.6c108.1 0 196.7.3 196.7.7.1.5.2 39.7.3 87.3.1 80.5.2 86.8 1.8 89.2 1.1 1.7 3.1 2.9 5 3.3 1.8.3 35.3.4 74.3.3 57.2-.3 71.7-.6 74.7-1.8 2.1-.7 4.1-1 4.5-.7.5.6-6.5 51.4-29.9 216.7-2.9 20.1-2.9 20.7-1.3 28.8 2.7 14.3 9.4 24 20 29.3l5 2.4H987c47.6 0 51.9-.1 56.3-1.8 12.8-5 24.7-18.4 29.2-33.1 1.6-5.1 4.4-21.3 7.5-43.6 2.7-19.5 7-50.4 9.5-68.5 5.2-36.8 5.4-45.5 1.6-55.7-4.1-10.6-12.8-19.1-22.6-21.7-2.5-.7-16.3-1.1-36.6-1.1-30 0-33.2.2-39.3 2-3.6 1.1-6.8 2.5-7.1 3-2.1 3.4-1.7-1.9 1.7-25.8 2.1-14.7 4-27.7 4.3-29 .6-2.4 4-3.1 4.7-1 .4 1 13.4 1.4 59.5 1.6l59.1.3 2.6-2.3c2.1-1.9 2.7-3.5 3.3-8.6.5-5.7.8-6.2 2.9-6.2h2.4v-164l192.1-.2 192.1-.3 1.8-2.2c1-1.3 2.1-4.9 2.5-8.2.6-5.1 1-6 2.8-6.3l2.2-.3.3-184.8.2-184.7h12.9c20.3 0 28.5-2.4 36.9-10.7 4-4 9.2-13.1 9.2-16 0-.7-2 .3-4.5 2.2-7.4 5.6-12.1 6.5-35.2 6.5H1519V1238.7l-7.2.7c-15.5 1.4-85.5 1.8-106.3.7-49.1-2.7-101.5-9.8-145-19.7-3.8-.9-8.8-2-11-2.4-2.2-.5-5.3-1.3-6.8-1.9-4.1-1.6-6.5-1.3-7 .6-.4 1.5-.5 1.4-.6-.3-.1-1.6-1.3-2.4-5.4-3.7-3-.9-6.3-1.7-7.5-1.7-1.1 0-5.7-1.4-10.2-3-4.5-1.7-9.1-3-10.2-3-3.4 0-78.8-26.5-79.8-28.1-.3-.4-5.8-2.7-12.3-5.1-6.5-2.4-11.5-4.7-11.2-5 .3-.3-.3-.8-1.5-1.1-2-.5-2-.4.2 2.3 1.3 1.5 3.7 4.9 5.3 7.6 1.7 2.7 4 6.5 5.2 8.4 1.3 1.9 2.6 4.2 3 5 .3.8 1.4 2.6 2.4 4 .9 1.4 2.8 4.6 4.2 7 1.3 2.5 3.8 7 5.5 10.1 1.7 3.1 2.9 5.9 2.6 6.2-.3.3.8 3.2 2.5 6.6 4.2 8.3 9.1 20.7 9.1 23.1 0 1.8-.7 2-6 2h-6v181H994v-2.8c0-1.7-1.3-4.1-3.5-6.5l-3.4-3.7h-19.4c-14.6 0-19.7.3-20.5 1.3-.6.7-1.4 3.6-1.8 6.5l-.7 5.2H799v-181H400v-193.5c0-154.1-.3-193.5-1.2-193.5-.7 0-10.1-.1-20.8-.3-17.4-.2-20-.5-24.1-2.4-6.6-3-12.4-8.6-15.6-15.1l-2.8-5.7V722c0-115.3 0-115.5 2.1-120.1 1.2-2.5 3.6-6.2 5.4-8.2 1.7-2 2.8-3.7 2.4-3.7-.5 0-3.6 1.3-6.9 2.9zm896.2 628.3c-.3.8-.6.5-.6-.6-.1-1.1.2-1.7.5-1.3.3.3.4 1.2.1 1.9zm-1 4c-.3.8-.6.5-.6-.6-.1-1.1.2-1.7.5-1.3.3.3.4 1.2.1 1.9zm-1 4c-.3.8-.6.5-.6-.6-.1-1.1.2-1.7.5-1.3.3.3.4 1.2.1 1.9zm-1 4c-.3.8-.6.5-.6-.6-.1-1.1.2-1.7.5-1.3.3.3.4 1.2.1 1.9zm-1 4c-.3.8-.6.5-.6-.6-.1-1.1.2-1.7.5-1.3.3.3.4 1.2.1 1.9zm-1.7 6.8c-.6 2.3-1.3 4-1.5 3.8-.2-.2.1-2.3.7-4.6.6-2.4 1.3-4.1 1.5-3.8.2.2-.1 2.3-.7 4.6zm-186 309.7c0 .5-3.4 25.7-7.7 56l-7.7 55.3h-33.3c-32.4 0-33.3-.1-33.3-2 0-1 .7-6.3 1.5-11.7.8-5.4 4-27.8 7-49.8 3.1-22 5.8-41.9 6.1-44.3l.6-4.2h33.4c18.4 0 33.4.3 33.4.7z"/><path d="M1199 664.4c-27.9 5.9-49.2 26-56.6 53.6-2.4 9-2.4 28.1 0 37 5.8 21.3 20.9 38.9 41.2 48.1 11.1 5.1 16.7 5.9 41 5.9 18.7 0 23.3-.3 29.7-2 20.7-5.3 37.4-18.8 47.2-38.2 6-12.1 7.9-21 7.3-35.6-.9-20.3-7.1-34.5-21.3-48.7-8.8-8.8-18.3-14.5-31-18.6-6.2-2-9.4-2.2-29-2.5-15.8-.2-23.8.1-28.5 1zM665.8 673c-22.4 3.8-43.7 20-53.4 40.5-19.9 42.1 2.5 90.4 48 103.2 9 2.6 49.2 2.6 58.6 0 25.8-6.9 46-26.7 53.1-52.2 2.9-10.1 3.1-26.7.6-36.5-7.1-27.5-29.3-48.7-56.9-54.4-8.3-1.7-41-2.1-50-.6zM30.6 804.1c-.3 1.9-1.5 9-2.6 15.9s-2.9 16.5-4.1 21.3c-1.1 4.9-1.9 9.1-1.6 9.3.8.9 4.7-14.4 6.2-24.6.8-5.8 2-13.6 2.5-17.4 1.1-6.8.6-10.8-.4-4.5zM959.2 1004.7l-.2 45.3H745.7l.7 7.9c1.2 15.3 7.3 32.4 15.7 44.9 10.7 15.5 28.2 28.7 46.4 35 14.2 4.8 10.7 4.7 152.5 4.7h133.5l8.3-2.3c38.8-10.6 65.5-42.6 68.8-82.3l.7-7.9H960l-.3-45.3-.2-45.2-.3 45.2zM7.7 1027.9c-6.1 11.2-8.2 36.9-7.3 90.6.3 20.9.6 38.6.6 39.2 0 .7.7 1.3 1.5 1.3 1 0 1.5-1.1 1.6-3.3.1-3.1.1-3.1.9.8.5 2.2 1.3 5.3 1.9 6.8.6 1.6 1.1 5.1 1.1 7.9 0 2.8.4 6.7.9 8.7.5 2 1.4 6.1 2.1 9.1.6 3 1.6 7.3 2.1 9.5.6 2.2 1.5 5.8 2.1 8 .5 2.2 1.8 7 2.9 10.7 1 3.8 2.8 9.8 3.8 13.5 3 10.6 22.3 69.4 24.2 73.8 1 2.2 2.7 6.9 3.9 10.5 1.2 3.6 2.6 6.9 3.1 7.4.5.6.9 1.7.9 2.5 0 .9 1.4 4.3 3 7.6 1.7 3.3 3 6.4 3 7 0 .5 1.4 3.7 3 7 1.7 3.3 3 6.3 3 6.8 0 .4 2.2 5.5 5 11.2 2.7 5.7 5 10.7 5 11.1 0 .9 18.4 37.7 21.2 42.4 1.1 1.9 4 7.1 6.3 11.5s5.6 10.4 7.3 13.3c1.8 2.9 3.2 5.5 3.2 5.8 0 .3 1.3 2.5 3 4.9 1.6 2.4 3 4.7 3 5 0 .4 1.3 2.7 3 5.2 1.7 2.4 3 4.6 3 4.9 0 .3 1.3 2.5 3 4.9 1.6 2.4 3 4.6 3 4.9 0 .7 26.9 41.1 32 48.1 17.7 24.2 27.7 37.3 41.9 54.5 57.4 69.7 127.8 133.9 200.7 183.3 16.1 10.9 42.1 27.7 42.9 27.7.2 0 2.4 1.3 4.8 3 2.5 1.6 4.8 3 5.2 3 .3 0 2.6 1.3 5 3 2.4 1.6 4.6 3 5 3 .3 0 2.4 1.2 4.6 2.6 2.2 1.4 9.3 5.3 15.7 8.6 6.5 3.4 13.3 7.1 15.2 8.3 3.9 2.4 32.3 16.5 33.3 16.5.3 0 5.3 2.3 11.1 5 5.8 2.8 10.8 5 11 5 .3 0 3.4 1.3 6.8 2.8 3.5 1.6 7.9 3.4 9.8 4.2 1.9.7 3.9 1.7 4.5 2.2.5.4 1.5.8 2.2.8.7 0 4.2 1.3 7.8 3 3.6 1.6 7 3 7.5 3 .6 0 1.8.4 2.8.9.9.5 4.4 1.9 7.7 3.1 3.3 1.2 6.9 2.6 8 3 8.9 3.6 39.9 13.9 57 18.9 3.9 1.1 9.5 2.8 12.5 3.7 3 .9 7.1 2 9 2.4 1.9.4 6.9 1.8 11 3s9.2 2.6 11.3 3.1l8 2c2.3.5 6.3 1.4 9 2 2.6.5 7.1 1.4 10 2 2.8.6 7.7 1.3 10.7 1.5 3 .3 6 1.1 6.5 1.8 1 1.4 32.2 2.9 53.5 2.7 5.9 0 11.6.6 15 1.6 4.5 1.3 8.4 1.4 22 .9 23.1-.9 37.6-3.7 42.7-8 2.7-2.3 2.7-2.5 1-4.4-1-1.1-4.2-3-7-4.2-2.9-1.1-6.1-2.5-7.2-3.1-5.9-2.8-22-6.6-37.5-8.9-57.1-8.3-96.1-16.4-141.5-29.4-29.3-8.4-64.2-20.2-86.3-29.2-14.6-6-32.2-11.5-34.3-10.9-2.7.9-20.4-5.1-34.4-11.7l-5-2.3 52-.5 52-.5 6.9-3.3c12.4-5.8 23.6-20 27.5-34.8 1.2-4.4 37.1-257.8 37.1-261.6 0-1.3-1.6-4-3.6-6.1l-3.6-3.7-19.5.2c-20.6.3-20.2.2-21.7 5-.4 1.5-1.2 1.3-6.7-1.5l-6.2-3.2h-73.2l-6.8 3.4c-12.3 6-23.1 19.2-27.1 33.1-2.3 7.8-19.7 132.1-19.8 140.6 0 7.4 2 16.2 5.3 22.5 2.6 5.2 10 12.3 15.6 15.1 4.8 2.3 5 2.3 46.6 2.6 31.7.2 41.7.6 41.7 1.5 0 .7-1 8.5-2.2 17.4l-2.2 16.3h-47.1c-25.8 0-47.5.4-48.2.8-2.1 1.3-3 5.3-5.8 26.9-2.8 21-2.8 21.3-.9 23.4 2.2 2.6 1.2 2.1-6.8-3.3-6.7-4.5-8.1-6.2-4.4-5.2 1.4.3 2.6.4 2.6.1 0-1-12.8-9.5-23-15.2-103.5-57.7-197.9-137.8-273.4-232-77.6-96.7-136.3-210.4-170.2-329.4-10.6-37.2-20.1-80.1-25.4-114.6-6.2-40.9-8.6-51.9-14.3-65.7-3.2-7.7-5.8-11.8-7.5-11.8-.5 0-2.1 2.2-3.5 4.9zm7.1 16.3c1.7 2.1 6.1 14.6 8.8 24.8 1.3 5.2 4.3 20.5 6.5 34 15.3 92.9 40.3 174.2 79.4 258 10.3 22.2 28.1 56.2 39.5 75.2 1.2 2.1 2 3.8 1.7 3.8-2.7 0-40.3-71.7-54.5-104.1-31.1-70.8-54-147.1-67.2-223.4-3.9-23-6.5-34.7-10.1-46.1-4.1-12.9-7.2-14.7-10.2-6.2l-1.5 4.3-.1-3.5c-.1-6.1 3.7-18 5.8-18 .5 0 1.3.6 1.9 1.2zm-11.1 102c-.3.8-.6.5-.6-.6-.1-1.1.2-1.7.5-1.3.3.3.4 1.2.1 1.9zm151.2 300.1c1.2 2.1 1.7 3.6 1.1 3.2-.6-.3-2-2.5-3.1-4.8-2.5-5-1-3.8 2 1.6zm3.9 7.2c-.3.3-.9-.2-1.2-1.2-.6-1.4-.5-1.5.5-.6.7.7 1 1.5.7 1.8zM663 1554.1c0 .6-2.9 21.6-6.5 46.7-3.5 25.2-6.7 48.1-7.1 50.9l-.7 5.3h-33.3c-21.2 0-33.4-.4-33.4-1 0-.5 3.2-23.2 7-50.4 3.9-27.2 7-50.2 7-51 0-1.4 3.9-1.6 33.5-1.6 23.7 0 33.5.3 33.5 1.1zM1904.8 1043.7c-6.3 7.2-10.1 21.2-16.3 60.8-22.1 139.7-71 265.8-148 382-52.4 79-118.5 151.5-194 213-58.6 47.7-122.1 87.8-178.5 112.8-11 4.9-45 18.9-53.5 22.2-5.5 2-11.1 4.3-12.5 5-1.4.7-5.2 2.1-8.5 3-3.3 1-6.7 2.1-7.5 2.5-2.4 1.3-29.5 10-32.6 10.6-1.5.3-3.2.8-3.8 1.2-.6.4-1.8.7-2.6.7s-2 .3-2.6.7c-.6.4-2.2.9-3.6 1.2-1.5.2-3.5.9-4.6 1.5-1.1.6-2.8.8-3.6.5-1-.4-1.6-.1-1.6.7 0 .7-.3 1-.6.6-.3-.3-1.8-.1-3.3.5-1.4.6-3.7 1.2-5.1 1.3-1.4.2-2.5.4-2.5.5 0 .1-1.3.4-3 .6-1.6.3-4.1.9-5.5 1.4-2.3.9-5 1.5-11 2.5-1.4.2-3.4.6-4.5.9-1.1.2-5.4 1.2-9.5 2.1-4.1.9-8.4 1.8-9.5 2.1-1.1.2-3.3.7-4.9 1-1.7.3-9.5 1.8-17.5 3.4-18.8 3.7-41 7.4-63.6 10.5-9.9 1.4-20.7 3.2-24 4-8.4 1.9-17.2 6.1-17.8 8.5-.3 1.1-.1 2 .5 2 .5 0 .7.4.3.9-.5.9 1.3 1.8 5.2 2.5 1 .2 3.6.9 5.8 1.5 5 1.3 24.7 4.1 29.2 4.1 2.4 0 3.3-.4 3.3-1.6 0-1.5 1.6-1.6 16.8-1 44.9 1.7 57.2 1.8 57.2.3 0-.8 1-1.7 2.3-2 6.5-1.5 43.6-10.9 47.6-12.1 2.5-.8 9.3-2.9 15.1-4.6 19.7-5.9 33.5-10.3 37.5-12.1 2.2-1 8.3-3.2 13.5-4.9 5.2-1.8 9.9-3.6 10.5-4.1.5-.5 1.5-.9 2.2-.9.8 0 3.3-.9 5.5-2 2.3-1.1 4.6-2 5-2 .5 0 2.8-.9 5-2 2.3-1.1 4.6-2 5-2 .5 0 2.8-.9 5-2 2.3-1.1 4.5-2 5-2 .4 0 3.2-1.1 6.2-2.5s5.8-2.5 6.3-2.5c.4 0 3.5-1.4 6.8-3s6.4-3 6.9-3 4.1-1.5 8-3.4c3.9-1.9 9.8-4.6 13.1-6 7.7-3.5 9.5-5.2 9.5-9.1 0-1.7.9-4.1 1.9-5.2 2.2-2.4 1.8-3.3-1.6-3.3-1.2 0-2.3-.3-2.3-.8 0-.8.2-.9 27.4-15.9 28.3-15.6 46-26.3 65.1-39.5 187.6-130 317.2-301.3 384.5-508.3 14.9-46 25.2-88.5 34.5-142.4 4.9-28.5 9.2-42.4 13-42.4 3.2 0 6.6 16.1 8 38 .7 10.8 2.4 14 2.6 5 .1-2.8 0-5.7-.2-6.2-.1-.6-.4-6.7-.5-13.6-.4-20.2-3.5-42.4-6.9-48.9-1.8-3.5-1.8-3.5-3.7-1.3zm-536.3 772.2c-2.4 2.4-58.3 26.7-59.2 25.8-.2-.2 7.9-3.9 17.9-8.2 10.1-4.4 23.5-10.3 29.8-13.1 12.5-5.7 12.9-5.9 11.5-4.5z"/><path d="M1901.2 1136.2c-.6.8-3.1 11.7-5.7 24.3-6.7 33.6-16.9 72.2-30.7 116-5.8 18.5-7.8 25.5-7.2 25.5.2 0 1.5-2.4 2.8-5.3 12.1-26.6 26.1-69.8 37.8-116.2 3.9-15.7 5.1-22.4 5.5-31.1.6-11.4-.3-15.8-2.5-13.2zM1356.6 1433.6c-.9.8-1.6 2.2-1.6 2.9 0 1.6-6.8 51.3-7.6 56.2l-.6 3.3h-19.3c-15.6 0-19.5.3-20.5 1.5-1 1.3-7 39.6-7 45.4 0 1.4 1.6 3.9 3.9 6.2l3.9 3.9h31.4l-.6 2.7c-.3 1.6-4.5 30-9.2 63.3-9.2 64.9-9.4 67-5.4 78.4 2.5 7.3 7 13.7 12.7 18.1 8 6.1 10.8 6.5 47.5 6.5h32.8l1.3-2.3c1.3-2 7-38.5 7-44.5 0-1.4-1.5-3.9-3.7-6.1l-3.6-3.6-22.8-.5-22.7-.5 7.7-54.5c4.2-30 7.7-55.1 7.7-55.8.1-.9 6-1.2 25.9-1.2 19.4 0 26.3-.3 27.6-1.3 1.3-1 2.4-5.6 4.6-21.2 3.7-25.4 3.7-25.8-.1-30.6l-3.1-3.9h-46.9l.6-3.3c.3-1.7 2.1-14 3.9-27.2 3.7-25.6 3.7-25.5-1.2-30.8l-2.6-2.7h-19.2c-16.2 0-19.5.3-20.8 1.6zM774.2 1497.9c-14.3 5-27 19.1-31.6 35.1-1.2 4.2-15.8 104.1-21.1 144.5-.8 6.3 1.7 19.1 5.1 25.8 3.2 6.3 9.7 12.7 15.9 15.8l5 2.4h101l5.9-2.7c8.6-4.1 19.3-15.2 23.8-24.8 2-4.1 4-9.5 4.6-12 1.9-8 20.2-140.4 20.2-146.1 0-15.7-8.3-30.4-21-37l-4.5-2.4-49-.2c-45.4-.3-49.4-.1-54.3 1.6zm77.5 58.3c-.7 4-13.2 92.7-14.4 101.8l-.8 6.5-31.9.3-31.9.2.6-4.7c.3-2.7 3.5-25.5 7.1-50.8 3.5-25.3 6.7-48.4 7.1-51.3l.7-5.2h64l-.5 3.2zM1154.2 1497.9c-10.8 3.7-20.5 12.4-27 24.1-3.8 6.9-5.7 13.6-7.6 27.5-.9 6-5.4 38.2-10.2 71.5l-8.5 60.5 1.6 8.3c2.7 14.3 9.4 24 20 29.3l5 2.4h101l6.7-3.3c12.4-6.1 24-21.3 27.6-36.2 1.9-7.8 20.2-140.3 20.2-146.1 0-15.7-8.3-30.4-21-37l-4.5-2.4-49-.2c-45.4-.3-49.4-.1-54.3 1.6zm77.8 55.8c0 .4-3.1 22.8-7 49.8-3.8 26.9-7.3 51.7-7.7 55l-.8 6-31.8.3c-31 .2-31.7.2-31.7-1.7 0-1.1.7-6.4 1.5-11.8 2-13 13.5-96.1 13.5-97.3 0-.6 11.7-1 32-1 17.6 0 32 .3 32 .7z"/></svg>