<?xml version="1.0" standalone="no"?>
<!DOCTYPE svg PUBLIC "-//W3C//DTD SVG 20010904//EN"
 "http://www.w3.org/TR/2001/REC-SVG-20010904/DTD/svg10.dtd">
<svg version="1.0" xmlns="http://www.w3.org/2000/svg"
 width="153.000000pt" height="153.000000pt" viewBox="0 0 153.000000 153.000000"
 preserveAspectRatio="xMidYMid meet">
<metadata>
Created by potrace 1.11, written by Peter Selinger 2001-2013
</metadata>
<g transform="translate(0.000000,153.000000) scale(0.100000,-0.100000)"
fill="#000000" stroke="none">
<path d="M0 1085 l0 -35 130 0 c98 0 138 -4 160 -15 17 -9 30 -20 30 -25 0 -6
5 -10 10 -10 6 0 10 11 10 25 0 14 4 25 9 25 6 0 6 -12 0 -32 -5 -18 -9 -34
-9 -35 0 -2 -7 -3 -15 -3 -19 0 -19 -19 0 -44 19 -25 19 -46 0 -46 -8 0 -23
-8 -33 -18 -18 -18 -45 -32 -58 -31 -4 0 -11 -5 -15 -13 -7 -10 -9 -10 -9 0 0
6 -9 12 -20 12 -11 0 -20 4 -20 8 0 10 -45 32 -66 32 -8 0 -19 -12 -24 -27 -6
-16 -16 -39 -23 -52 -6 -13 -12 -44 -11 -67 1 -34 -3 -45 -18 -49 -17 -6 -26
-25 -10 -25 4 0 12 -10 17 -22 7 -16 20 -24 45 -26 19 -2 39 -8 45 -13 14 -14
47 -11 67 8 17 15 20 14 43 -13 30 -35 31 -44 7 -44 -11 0 -24 -11 -30 -25
-11 -24 -15 -25 -112 -25 l-100 0 0 -40 0 -40 765 0 765 0 0 195 c0 163 -2
195 -14 195 -26 0 -71 -20 -84 -38 -12 -15 -13 -13 -10 18 3 37 3 37 76 39
l32 1 0 145 0 145 -765 0 -765 0 0 -35z m330 -45 c0 -5 -7 -7 -15 -4 -8 4 -15
8 -15 10 0 2 7 4 15 4 8 0 15 -4 15 -10z m1186 1 c-3 -4 -18 -14 -34 -20 -25
-11 -50 -46 -66 -94 -3 -10 -24 -26 -46 -35 -30 -13 -38 -21 -34 -35 4 -13 -1
-11 -20 8 -29 28 -53 32 -82 10 -31 -23 -57 -18 -76 16 -21 37 -24 56 -5 41
35 -29 87 18 87 78 0 15 3 30 7 33 10 10 275 8 269 -2z m-792 -41 c13 -13 -1
-40 -17 -34 -8 3 -17 -2 -21 -12 -6 -15 -9 -15 -31 6 l-25 24 -20 -22 c-35
-37 -62 -24 -44 21 3 8 14 12 27 10 12 -2 36 3 52 11 29 15 60 13 79 -4z m-87
-86 c-3 -3 -12 -4 -19 -1 -8 3 -5 6 6 6 11 1 17 -2 13 -5z m108 -41 c4 -14 2
-23 -4 -23 -6 0 -11 -4 -11 -10 0 -5 15 -10 33 -10 17 0 43 -3 56 -7 22 -5 23
-9 17 -57 -5 -36 -15 -58 -33 -76 l-25 -25 5 25 c3 14 9 43 13 66 6 40 5 41
-27 48 -47 9 -79 -15 -79 -58 0 -19 -9 -44 -19 -57 l-19 -24 8 40 c4 22 11 52
14 66 7 24 5 27 -28 33 -52 10 -72 -5 -80 -59 -9 -57 -40 -82 -83 -67 -28 10
-28 10 9 11 41 1 41 2 56 91 l8 45 82 0 c45 0 82 2 82 5 0 3 -3 15 -6 28 -6
22 -11 23 -58 18 -35 -4 -45 -3 -31 3 11 5 33 10 48 10 15 1 30 8 34 17 5 13
8 13 18 2 7 -7 16 -23 20 -35z m181 0 c15 -20 18 -33 7 -33 -5 0 -13 11 -20
25 -13 29 -6 33 13 8z m-456 -37 c0 -13 -7 -27 -16 -30 -14 -5 -16 -16 -11
-61 5 -50 4 -55 -14 -55 -17 0 -19 5 -13 55 5 39 3 55 -5 55 -6 0 -2 13 11 30
26 36 48 39 48 6z m-268 -25 c10 -16 14 -17 22 -5 12 16 28 18 109 16 l59 -2
-7 -42 c-13 -80 -57 -120 -112 -100 -27 10 -26 10 18 11 44 1 47 3 53 32 11
57 7 76 -16 83 -42 11 -59 6 -89 -23 -23 -23 -29 -26 -30 -13 -1 9 -6 1 -13
-18 -16 -49 -26 -62 -43 -56 -8 3 -11 1 -8 -4 9 -14 -37 -22 -65 -11 -22 8
-22 10 -5 10 11 1 26 10 33 21 7 11 18 20 26 20 15 0 26 21 26 50 0 12 -10 21
-30 25 -45 10 -36 25 15 25 33 0 48 -5 57 -19z m866 11 c7 -5 10 -16 6 -25 -7
-19 -16 -21 -30 -7 -12 12 -28 -16 -38 -62 -9 -41 -49 -63 -89 -50 l-32 10 46
1 45 1 10 51 c10 49 10 51 -13 60 -37 14 -58 11 -87 -12 -17 -14 -26 -30 -26
-50 0 -16 -5 -29 -11 -29 -6 0 -8 8 -5 18 3 9 6 33 8 52 l3 35 95 6 c52 3 97
6 100 7 3 1 11 -2 18 -6z m332 -8 c6 -6 8 -22 5 -36 -7 -29 -70 -54 -101 -41
-15 6 -9 9 21 13 31 4 41 10 43 26 2 17 -3 22 -34 27 -52 9 -70 -5 -78 -57 -6
-41 -29 -76 -42 -64 -2 3 0 25 5 49 17 73 13 76 -35 21 -25 -28 -50 -52 -55
-52 -5 0 10 28 34 63 l42 62 92 0 c54 0 97 -5 103 -11z m-860 -4 c0 -12 -8
-12 -35 0 -18 8 -17 9 8 9 15 1 27 -3 27 -9z m560 -69 c0 -3 3 -16 6 -28 5
-17 2 -23 -10 -23 -17 0 -40 45 -31 60 6 10 35 2 35 -9z m313 -52 c-6 -6 -7 3
-4 23 4 28 6 29 9 9 2 -13 0 -27 -5 -32z m-55 -11 c-25 -7 -47 -6 -65 0 -24 9
-18 10 37 10 61 0 63 -1 28 -10z m-768 -106 c0 -37 11 -50 39 -48 33 1 50 30
33 56 -18 29 -15 39 4 12 8 -12 14 -30 12 -40 -2 -10 7 -24 22 -34 25 -18 24
-18 -58 -18 -62 0 -87 4 -99 16 -14 14 -13 17 6 38 11 12 21 30 21 40 0 9 5
14 10 11 6 -3 10 -18 10 -33z m-180 -48 c36 -2 67 -3 70 -4 3 0 -2 -5 -10 -10
-8 -5 -42 -10 -75 -10 -51 0 -62 3 -74 21 -12 20 -11 21 6 14 10 -5 47 -10 83
-11z m453 -6 c-2 -5 -13 -8 -23 -8 -10 0 -21 3 -23 8 -3 4 8 7 23 7 15 0 26
-3 23 -7z"/>
<path d="M1175 880 c3 -5 12 -10 20 -10 8 0 17 5 20 10 4 6 -5 10 -20 10 -15
0 -24 -4 -20 -10z"/>
<path d="M280 1016 c0 -2 7 -7 16 -10 8 -3 12 -2 9 4 -6 10 -25 14 -25 6z"/>
<path d="M0 898 c0 -37 5 -60 15 -68 13 -11 15 -8 15 13 0 14 6 32 14 40 13
13 11 18 -15 43 l-29 28 0 -56z"/>
</g>
</svg>
